<?xml version="1.0" encoding="UTF-8"?>
<svg id="Camada_2" data-name="Camada 2" xmlns="http://www.w3.org/2000/svg" viewBox="0 0 325.92 70.95">
  <defs>
    <style>
      .cls-1 {
        fill: #e5ae41;
      }
    </style>
  </defs>
  <g id="Site_Celular" data-name="Site Celular">
    <g>
      <path class="cls-1" d="M140.95,24.8c1.87-2.24,3.62-4.34,5.38-6.45,5.02-6.03,10.04-12.05,15.07-18.07,.13-.16,.43-.25,.65-.26,8.39-.01,16.79-.01,25.18,0,.79,0,.88,.15,.74,.92-.58,3.28-1.14,6.56-1.72,9.83-.6,3.35-1.21,6.7-1.81,10.06-.44,2.47-.85,4.95-1.28,7.42-.19,1.09-.43,2.16-.58,3.25-.09,.69-.42,.85-1.08,.85-8.8-.02-17.61-.01-26.41-.01-11.37,0-22.74,0-34.11,0-7.75,0-15.5,0-23.25,0-.99,0-1.02-.01-.85-1,.45-2.6,.92-5.2,1.38-7.79,.61-3.43,1.21-6.86,1.81-10.29,.74-4.16,1.48-8.32,2.21-12.48C102.39,.23,102.62,0,103.21,0c8.37,.02,16.74,.02,25.1,0,.45,0,.67,.15,.86,.56,1.14,2.43,2.32,4.85,3.49,7.26,1.86,3.85,3.73,7.69,5.58,11.53,.76,1.57,1.49,3.15,2.24,4.72,.1,.22,.26,.41,.47,.72Z"/>
      <path class="cls-1" d="M221.57,36.4c9.75,0,19.5,.03,29.25-.03,1.41,0,2.5,.43,3.6,1.21,1.8,1.29,3.2,2.92,4.08,4.91,.83,1.88,1.03,3.95,.94,6.02-.11,2.54-.63,5.02-1.7,7.29-.87,1.85-2.09,3.59-3.42,5.16-3.19,3.75-7.4,6-12.02,7.54-3,1-6.11,1.48-9.22,2-4.55,.75-9.1,.34-13.65,.37-11.42,.09-22.84,.03-34.27,.03-1.01,0-1.03,0-.86-.97,.74-4.19,1.51-8.37,2.25-12.55,.72-4.06,1.42-8.13,2.13-12.19,.48-2.72,.99-5.44,1.45-8.17,.11-.68,.57-.62,1.03-.62,3.82,0,7.65,0,11.47,0,5.54,0,11.08-.03,16.62-.04,.77,0,1.54,0,2.31,0,0,.01,0,.03,0,.04Z"/>
      <path class="cls-1" d="M220.87,32.34c-9.06,0-18.12,0-27.18,0-.67,0-1.33-.01-2,0-.53,.01-.73-.16-.63-.74,.86-4.66,1.71-9.32,2.53-13.99,.97-5.47,1.91-10.95,2.86-16.43,.19-1.12,.25-1.17,1.36-1.17,14.58,0,29.16-.03,43.74,.04,2.13,0,4.26,.46,6.38,.77,3.15,.46,6.16,1.37,8.84,3.12,3.51,2.3,5.83,5.42,5.99,9.75,.25,7.22-2.85,12.73-8.83,16.69-.58,.38-1.17,.74-1.77,1.08-1.03,.59-2.1,.9-3.34,.9-9.32-.05-18.64-.03-27.95-.03h0Z"/>
      <path class="cls-1" d="M291.7,70.89c-9.86,0-19.71,0-29.57,0-1.07,0-1.08,0-.9-1.05,.36-2.09,.75-4.18,1.12-6.28,.83-4.74,1.64-9.47,2.48-14.21,.72-4.06,1.47-8.12,2.18-12.18,.1-.6,.36-.79,.97-.79,7.85,.02,15.71,.01,23.56,.01,1.09,0,1.11,0,.93,1.06-.63,3.63-1.27,7.27-1.91,10.9-.1,.58-.22,1.15-.31,1.73-.09,.56,.34,.48,.65,.48,1.62,.01,3.23,0,4.85,0,8.24,0,16.48,0,24.72,0,1.56,0,3.13,.04,4.69-.02,.72-.02,.84,.27,.73,.87-.33,1.71-.66,3.41-.97,5.12-.49,2.62-.96,5.24-1.44,7.85-.36,1.99-.74,3.98-1.07,5.97-.08,.51-.36,.52-.75,.52-3.21,0-6.42,0-9.62,0-6.78,0-13.55,0-20.33,0h0Z"/>
      <path class="cls-1" d="M50.8,70.89c-9.88,0-19.76,0-29.64,0-.94,0-.96-.02-.78-.96,.2-1.11,.37-2.22,.63-3.32,.08-.36,.33-.76,.62-.97,5.42-3.87,10.86-7.71,16.3-11.56,4.96-3.51,9.91-7.02,14.87-10.53,3.2-2.26,6.4-4.53,9.62-6.77,.33-.23,.8-.38,1.21-.38,7.62-.02,15.24-.01,22.86,0,.83,0,.88,.09,.73,.97-.71,4.09-1.4,8.18-2.12,12.26-.82,4.67-1.67,9.33-2.51,13.99-.39,2.17-.79,4.34-1.13,6.51-.1,.62-.33,.77-.93,.77-9.91-.02-19.81-.01-29.72-.01Z"/>
      <path class="cls-1" d="M93.8,.02c-.05,.43-.07,.8-.14,1.17-.36,2.07-.73,4.14-1.1,6.2-.58,3.23-1.16,6.45-1.73,9.68-.46,2.57-.9,5.14-1.36,7.72-.41,2.32-.82,4.64-1.22,6.97-.1,.56-.48,.58-.91,.58-1.98,0-3.95,0-5.93,0-6.49,0-12.99-.01-19.48,0-.56,0-.95-.18-1.35-.57-4.21-4.13-8.43-8.25-12.66-12.36-2.59-2.52-5.18-5.04-7.78-7.56-2.32-2.24-4.66-4.47-6.98-6.71-.7-.67-1.28-1.33-.89-2.46,.29-.83,.33-1.75,.49-2.67h61.03Z"/>
      <path class="cls-1" d="M162.9,70.89c-3.95,0-7.9,0-11.86,0-.92,0-.89,0-.74-.89,.73-4.08,1.44-8.17,2.17-12.26,.44-2.5,.9-4.99,1.34-7.49,.48-2.7,.93-5.4,1.41-8.1,.29-1.64,.61-3.27,.88-4.91,.11-.65,.42-.88,1.09-.88,3.95,.03,7.9,.02,11.86,.01,3.95,0,7.9-.02,11.85-.04,.59,0,.78,.25,.68,.81-.28,1.56-.54,3.13-.82,4.69-.51,2.87-1.02,5.75-1.54,8.62-.71,3.96-1.42,7.92-2.12,11.87-.46,2.6-.93,5.19-1.34,7.8-.09,.59-.29,.76-.86,.76-4-.02-8.01-.01-12.01-.01Z"/>
      <path class="cls-1" d="M102.4,70.89c-3.87,0-7.75,0-11.62,0-.89,0-.89-.04-.73-.93,.62-3.45,1.21-6.91,1.83-10.36,.58-3.28,1.19-6.55,1.77-9.83,.45-2.55,.88-5.1,1.32-7.64,.29-1.66,.61-3.32,.89-4.99,.1-.56,.39-.76,.95-.76,7.8,.01,15.6,.01,23.4,0,.61,0,.78,.23,.67,.79-.59,3.25-1.19,6.5-1.77,9.75-.56,3.2-1.09,6.41-1.65,9.61-.56,3.23-1.15,6.45-1.72,9.68-.22,1.23-.49,2.46-.63,3.71-.08,.73-.31,.99-1.08,.98-3.87-.04-7.75-.02-11.62-.02h0Z"/>
      <path class="cls-1" d="M280.61,32.34c-3.98,0-7.95-.01-11.93,.01-.68,0-.82-.22-.7-.86,.81-4.44,1.58-8.88,2.36-13.32,.78-4.39,1.55-8.78,2.33-13.17,.25-1.39,.5-2.77,.74-4.16,.1-.59,.37-.85,1.03-.85,7.93,.02,15.86,.02,23.79,0,.71,0,.85,.29,.75,.88-.73,4.06-1.48,8.11-2.2,12.17-.58,3.25-1.11,6.51-1.68,9.77-.44,2.52-.91,5.04-1.37,7.56-.03,.15-.06,.3-.08,.45-.22,1.55,.09,1.5-1.79,1.5-3.75,0-7.5,0-11.24,0h0Z"/>
      <path class="cls-1" d="M20.31,36.38c6.52,0,13.03,0,19.55-.01,.63,0,.7,.27,.56,.76-2.1,7.16-6.51,12.42-13.11,15.87-3.65,1.91-7.54,2.83-11.63,2.55-6.97-.48-12.77-4.47-14.97-11.58C-.01,41.66,0,39.34,0,36.99c0-.62,.41-.61,.84-.61,1.59,0,3.18,0,4.77,0,4.9,0,9.8,0,14.7,0h0Z"/>
      <path class="cls-1" d="M20.99,32.34c-6.29,0-12.57,0-18.86,0-1.06,0-1.04-.02-.66-1.03,1.24-3.32,3.17-6.21,5.67-8.68,2.89-2.87,6.24-5.04,10.17-6.27,3.43-1.07,6.91-1.48,10.46-.74,5.66,1.18,9.75,4.29,12.02,9.69,.82,1.96,1.21,4,1.21,6.13,0,.72-.22,.92-.92,.91-6.36-.02-12.72-.01-19.09-.01Z"/>
      <path class="cls-1" d="M155.79,36.44c-.26,.39-.39,.65-.57,.87-3.56,4.07-7.12,8.14-10.68,12.21-3.19,3.65-6.37,7.3-9.55,10.95-.62,.71-.83,.68-1.25-.13-2.71-5.22-5.42-10.45-8.14-15.67-1.3-2.5-2.6-4.99-3.9-7.49-.36-.69-.29-.79,.46-.79,6,0,12,0,18.01,0,4.85,0,9.7,0,14.55,0,.29,0,.59,.03,1.08,.05Z"/>
    </g>
  </g>
</svg>